<svg width="31" height="32" viewBox="0 0 31 32" fill="none" xmlns="http://www.w3.org/2000/svg">
<path d="M29.2896 0.5H1.71044C0.765788 0.5 0 1.26579 0 2.21044V29.7896C0 30.7342 0.765788 31.5 1.71044 31.5H29.2896C30.2342 31.5 31 30.7342 31 29.7896V2.21044C31 1.26579 30.2342 0.5 29.2896 0.5Z" fill="#3D5A98"/>
<path d="M21.387 31.4974V19.4929H25.4155L26.018 14.8147H21.387V11.8287C21.387 10.4745 21.7642 9.54985 23.7051 9.54985H26.183V5.35889C24.9831 5.23407 23.7773 5.17461 22.5709 5.18078C19.0034 5.18078 16.5464 7.35484 16.5464 11.3651V14.8147H12.5179V19.4929H16.5464V31.4974H21.387Z" fill="white"/>
</svg>
