<svg width="83" height="39" viewBox="0 0 83 39" fill="none" xmlns="http://www.w3.org/2000/svg">
<rect y="0.5" width="83" height="38" rx="18" fill="#AFCB8C"/>
<path d="M51.5 28.5L45.5 22.5M33.5 17.5C33.5 18.4193 33.6811 19.3295 34.0328 20.1788C34.3846 21.0281 34.9002 21.7997 35.5503 22.4497C36.2003 23.0998 36.9719 23.6154 37.8212 23.9672C38.6705 24.3189 39.5807 24.5 40.5 24.5C41.4193 24.5 42.3295 24.3189 43.1788 23.9672C44.0281 23.6154 44.7997 23.0998 45.4497 22.4497C46.0998 21.7997 46.6154 21.0281 46.9672 20.1788C47.3189 19.3295 47.5 18.4193 47.5 17.5C47.5 16.5807 47.3189 15.6705 46.9672 14.8212C46.6154 13.9719 46.0998 13.2003 45.4497 12.5503C44.7997 11.9002 44.0281 11.3846 43.1788 11.0328C42.3295 10.6811 41.4193 10.5 40.5 10.5C39.5807 10.5 38.6705 10.6811 37.8212 11.0328C36.9719 11.3846 36.2003 11.9002 35.5503 12.5503C34.9002 13.2003 34.3846 13.9719 34.0328 14.8212C33.6811 15.6705 33.5 16.5807 33.5 17.5Z" stroke="black" stroke-width="2" stroke-linecap="round" stroke-linejoin="round"/>
</svg>
