<svg width="31" height="31" viewBox="0 0 31 31" fill="none" xmlns="http://www.w3.org/2000/svg">
<path d="M4.42857 0C1.98594 0 0 1.98594 0 4.42857V26.5714C0 29.0141 1.98594 31 4.42857 31H26.5714C29.0141 31 31 29.0141 31 26.5714V4.42857C31 1.98594 29.0141 0 26.5714 0H4.42857ZM24.9868 5.8125L17.8042 14.0192L26.2531 25.1875H19.6379L14.4621 18.4132L8.53192 25.1875H5.24509L12.9259 16.4065L4.82299 5.8125H11.6042L16.2888 12.0056L21.7 5.8125H24.9868ZM22.3712 23.2223L10.6147 7.67388H8.65647L20.5444 23.2223H22.3643H22.3712Z" fill="black"/>
</svg>
