<svg width="28" height="24" viewBox="0 0 28 24" fill="none" xmlns="http://www.w3.org/2000/svg">
<path d="M9.17 2L12.59 5.41L13.17 6H26V22H2V2H9.17ZM9.17 6.27933e-07H2C1.46957 6.27933e-07 0.960859 0.210714 0.585786 0.585787C0.210714 0.96086 0 1.46957 0 2V22C0 22.5304 0.210714 23.0391 0.585786 23.4142C0.960859 23.7893 1.46957 24 2 24H26C26.5304 24 27.0391 23.7893 27.4142 23.4142C27.7893 23.0391 28 22.5304 28 22V6C28 5.46957 27.7893 4.96086 27.4142 4.58579C27.0391 4.21071 26.5304 4 26 4H14L10.59 0.590001C10.4039 0.402832 10.1827 0.254338 9.93897 0.153077C9.69526 0.0518165 9.43391 -0.000208492 9.17 6.27933e-07Z" fill="black"/>
</svg>
