<svg width="26" height="25" viewBox="0 0 26 25" fill="none" xmlns="http://www.w3.org/2000/svg">
<path d="M7.27238 21.5909C7.27238 22.5379 6.94814 23.3428 6.29968 24.0057C5.65121 24.6686 4.86378 25 3.9374 25C3.01101 25 2.22359 24.6686 1.57512 24.0057C0.926651 23.3428 0.602417 22.5379 0.602417 21.5909C0.602417 20.6439 0.926651 19.839 1.57512 19.1761C2.22359 18.5133 3.01101 18.1818 3.9374 18.1818C4.86378 18.1818 5.65121 18.5133 6.29968 19.1761C6.94814 19.839 7.27238 20.6439 7.27238 21.5909ZM16.1657 23.7749C16.1888 24.1063 16.0904 24.3904 15.8704 24.6271C15.6619 24.8757 15.3898 25 15.054 25H12.7091C12.4196 25 12.1706 24.9023 11.9622 24.707C11.7538 24.5117 11.638 24.2661 11.6148 23.9702C11.36 21.2595 10.2918 18.9424 8.41009 17.0188C6.52838 15.0953 4.26163 14.0033 1.60986 13.7429C1.32036 13.7192 1.08008 13.6009 0.889017 13.3878C0.69795 13.1747 0.602417 12.9202 0.602417 12.6243V10.2273C0.602417 9.884 0.724005 9.60582 0.96718 9.39276C1.16404 9.19152 1.413 9.09091 1.71408 9.09091H1.80093C3.65369 9.24479 5.4254 9.72124 7.11605 10.5202C8.8067 11.3192 10.3063 12.3935 11.6148 13.7429C12.9349 15.0805 13.9858 16.6134 14.7674 18.3416C15.549 20.0698 16.0151 21.8809 16.1657 23.7749ZM25.0589 23.8104C25.0821 24.13 24.9779 24.4081 24.7463 24.6449C24.5378 24.8816 24.2715 25 23.9473 25H21.4634C21.1623 25 20.9047 24.8964 20.6905 24.6893C20.4762 24.4821 20.3633 24.2306 20.3518 23.9347C20.2128 21.3897 19.628 18.9719 18.5974 16.6815C17.5668 14.391 16.2265 12.4023 14.5763 10.7156C12.9262 9.02876 10.9808 7.65862 8.74012 6.60511C6.49943 5.55161 4.13425 4.94792 1.6446 4.79403C1.3551 4.7822 1.10903 4.66678 0.906387 4.4478C0.70374 4.22881 0.602417 3.97135 0.602417 3.67543V1.13636C0.602417 0.804924 0.718215 0.53267 0.949811 0.319602C1.15825 0.106534 1.413 0 1.71408 0H1.76619C4.80009 0.153883 7.70372 0.86411 10.4771 2.13068C13.2504 3.39725 15.714 5.13731 17.8679 7.35085C20.0333 9.55256 21.7355 12.0709 22.9746 14.9059C24.2136 17.7409 24.9084 20.709 25.0589 23.8104Z" fill="black"/>
</svg>
